<?xml version="1.0" standalone="no"?>
<!DOCTYPE svg PUBLIC "-//W3C//DTD SVG 20010904//EN"
 "http://www.w3.org/TR/2001/REC-SVG-20010904/DTD/svg10.dtd">
<svg version="1.0" xmlns="http://www.w3.org/2000/svg"
 width="600.000000pt" height="600.000000pt" viewBox="0 0 600.000000 600.000000"
 preserveAspectRatio="xMidYMid meet">
<metadata>
Created by potrace 1.14, written by Peter Selinger 2001-2017
</metadata>
<g transform="translate(0.000000,600.000000) scale(0.100000,-0.100000)"
fill="#000000" stroke="none">
<path d="M3429 5777 c-1 -40 -2 -83 -4 -97 -1 -14 -5 -72 -9 -130 -4 -58 -9
-116 -11 -130 -1 -14 -6 -50 -9 -80 -4 -30 -9 -67 -12 -82 -3 -15 -7 -39 -9
-55 -21 -160 -53 -303 -69 -308 -6 -2 -56 -6 -111 -9 -116 -7 -147 -10 -310
-37 -161 -25 -161 -25 -310 -64 -232 -60 -494 -156 -688 -250 -46 -23 -81 -35
-86 -29 -8 8 -37 98 -77 239 -17 62 -122 470 -128 499 -41 199 -59 282 -65
287 -3 4 -40 -4 -81 -16 -281 -87 -675 -211 -727 -229 l-63 -22 29 -59 c88
-183 140 -323 282 -770 11 -33 45 -137 77 -231 l58 -171 -65 -59 c-135 -123
-300 -318 -426 -504 -226 -332 -402 -767 -461 -1140 -3 -19 -7 -46 -9 -60 -20
-117 -27 -449 -12 -578 55 -493 323 -884 703 -1028 130 -49 223 -63 383 -59
163 4 190 7 309 36 277 68 523 223 827 521 77 76 141 138 141 138 1 0 42 -46
90 -101 49 -56 99 -113 111 -126 15 -17 26 -22 36 -16 13 7 106 81 491 386 61
48 123 97 139 109 15 11 27 24 27 28 0 4 -31 38 -68 76 -82 84 -208 223 -255
283 l-35 44 42 66 c107 168 233 402 353 659 147 316 365 903 483 1302 12 41
25 78 29 82 11 12 175 -47 293 -105 336 -167 590 -465 705 -827 33 -103 39
-127 49 -186 3 -21 7 -41 9 -45 18 -29 26 -381 12 -499 -12 -101 -14 -111 -30
-180 -100 -418 -356 -750 -760 -984 -160 -92 -374 -179 -578 -234 -88 -24 -84
-23 -254 -56 -128 -24 -156 -28 -265 -41 -115 -12 -133 -15 -136 -18 -3 -2 68
-117 100 -162 14 -20 296 -450 363 -552 18 -29 40 -53 47 -53 13 0 153 24 206
35 14 3 38 8 53 10 42 8 239 61 332 89 202 61 439 162 620 264 75 42 284 177
295 191 3 3 37 31 75 62 84 67 235 215 290 284 22 27 48 59 58 70 39 43 148
215 200 315 127 244 206 506 241 805 13 115 15 543 3 605 -3 14 -8 45 -11 70
-29 239 -113 514 -226 742 -54 109 -191 327 -228 365 -9 9 -30 33 -45 52 -96
122 -291 294 -454 402 -90 59 -272 155 -387 205 -81 34 -272 95 -350 110 -28
5 -29 8 -12 71 15 55 83 350 93 403 2 14 15 77 29 140 14 63 27 126 30 140 3
14 14 58 25 99 11 40 18 75 17 76 -4 4 -71 13 -148 20 -36 3 -81 7 -100 10
-19 2 -71 7 -115 10 -44 4 -91 8 -105 10 -14 2 -61 6 -105 10 -44 3 -98 8
-120 10 -79 8 -171 17 -197 21 l-28 3 -1 -72z m-360 -1784 c-68 -207 -129
-378 -174 -488 -4 -11 -9 -24 -10 -30 -2 -5 -40 -97 -86 -204 -90 -209 -258
-553 -274 -558 -12 -3 -33 34 -135 237 -115 228 -340 765 -340 810 0 8 9 20
19 25 358 183 489 237 725 295 104 25 257 54 312 59 7 1 -8 -60 -37 -146z
m-1596 -943 c149 -368 325 -732 463 -957 42 -69 74 -126 74 -132 -1 -8 -65
-79 -172 -189 -213 -216 -380 -308 -563 -306 -74 0 -99 4 -140 24 -100 49
-175 152 -212 294 -18 66 -24 295 -11 396 39 299 152 594 333 865 66 100 144
200 150 193 2 -2 37 -86 78 -188z"/>
</g>
</svg>
